<?xml version="1.0" encoding="utf-8"?>
<!-- Generator: Adobe Illustrator 26.3.1, SVG Export Plug-In . SVG Version: 6.00 Build 0)  -->
<svg version="1.1" id="Layer_1" xmlns="http://www.w3.org/2000/svg" xmlns:xlink="http://www.w3.org/1999/xlink" x="0px" y="0px"
	 viewBox="0 0 362.6 388" style="enable-background:new 0 0 362.6 388;" xml:space="preserve">
<style type="text/css">
	.st0{fill:#229529;}
	.st1{fill:#FFC000;}
</style>
<g>
	<path class="st0" d="M225,124.7c-3.1-2.5-5.4-6.1-8.3-8.8c-3-2.9-6.4-5.3-8.9-7.3c-9.9,11.7-18.3,22.7-27.8,32.7
		c-10.1,10.6-20.9,20.2-36.4,22.8c-9,1.5-16.1,6.6-22.2,14c-13.4,16.3-30,29-49.5,37.2c-11.5,4.8-23.5,8.7-36,13.2
		c14.7,14.5,29.9,27.1,52.9,25.2c-4.8,3.4-16.1,19.9-28.3,30.2c-4.2,3.5-8.6,6.6-14.2,10.7c8-0.6,14.3-1,21.7-1.6
		c-10.8,22.9-6.7,33.8-3.2,57.7c0,0,23.4-78,56-87c0.2,14.3,3,27.5,11.4,39.1c0.5-0.3,0.8-0.4,0.8-0.5c0-3.4-0.2-6.8-0.1-10.1
		c1-60.8,26-111,68.6-153.2c0.9-0.9,2.2-1.9,3.4-2.2c5-1,10.1-1.8,15.7-2.8c0.5,9.4-4.2,16.8-9.7,24.2c0,0-13.1,15.5-14.7,20.8
		s-2.3,19.6,5,25c-0.2-2.6-0.6-5.2-0.7-7.7c-0.2-10.3,10-25.5,13.6-28.1c3.2-2.4,6.6-4.5,9.9-6.8C235.6,153.1,236.1,133.5,225,124.7
		z M134.3,197.9c-0.8-17.6,5.4-25.1,18.5-20.2C146.4,184.7,140.4,191.3,134.3,197.9z"/>
	<path id="XMLID_00000049214944536784045030000013984633361082041260_" class="st0" d="M245.3,183.3c-0.7-6-5.3-9.7-10.3-8.6
		c-5,1.2-13.1,12.3-10.2,12.1c3.5-0.3,10.8,0.9,10.8,0.9c2.5,3.9-1.2,8.5-4,10.2c-6.1,3.7-10.8,9.6-17,13.1
		c-9.6,5.4-19.8,9.7-29.6,14.6c-11.7,5.8-14.4,22.8-5,31.2c3.4-10.9,4.6-12.4,10.4-13c-1,37.2,3.5,54.7,18.9,71.9
		c-0.6-2.3-1.2-4.6-1.8-6.9c-0.6-2.5-1.2-5.1-1.8-7.6c-6.2-30.3-1.5-58.1,18.6-82.4c4.8-5.8,10.1-11.3,15.5-16.7
		C245.2,196.8,246.1,190.2,245.3,183.3z"/>
</g>
<path class="st1" d="M310,170.7c-16.4-71.1-87.4-115.5-158.6-99C107.2,82,73.3,113.3,58,152.7c-4,8.5-7.2,17.4-9.3,26.8
	c1.3-26.3,10.1-51.7,25.7-73.7c21.6-30.4,53.8-50.6,90.6-56.8c36.8-6.2,73.8,2.3,104.2,23.9c30.4,21.6,50.6,53.8,56.8,90.6
	c9.8,58.3-18,114.6-66.3,143.3C300.8,276.5,322.2,223.7,310,170.7z"/>
</svg>
