<?xml version="1.0" encoding="utf-8"?>
<!-- Generator: Adobe Illustrator 26.3.1, SVG Export Plug-In . SVG Version: 6.00 Build 0)  -->
<svg version="1.1" id="Layer_1" xmlns="http://www.w3.org/2000/svg" xmlns:xlink="http://www.w3.org/1999/xlink" x="0px" y="0px"
	 viewBox="0 0 736.6 326.1" style="enable-background:new 0 0 736.6 326.1;" xml:space="preserve">
<style type="text/css">
	.st0{fill:#007932;}
	.st1{fill:#FFC000;}
	.st2{fill:#FFFFFF;}
</style>
<g>
	<path class="st0" d="M353.2,78.1c-2.2-1.8-3.8-4.3-5.9-6.3c-2.2-2-4.6-3.8-6.3-5.3c-7.1,8.3-13.1,16.1-19.9,23.2
		c-7.2,7.5-15,14.4-26,16.2c-6.4,1.1-11.5,4.6-15.9,9.9c-9.6,11.6-21.4,20.6-35.4,26.3c-8.2,3.4-16.8,6.1-25.7,9.3
		c10.4,10.3,21.2,19.4,37.6,18.1c-3.5,2.4-11.5,14.1-20.3,21.4c-3,2.5-6.2,4.7-10.1,7.6c5.7-0.4,10.2-0.7,15.5-1.1
		c-7.7,16.3-4.9,24-2.4,41.1c0,0,16.9-55.5,40.2-61.8c0.1,10.2,2.1,19.6,8,27.9c0.3-0.2,0.6-0.3,0.5-0.4c0-2.4-0.1-4.8-0.1-7.2
		c0.9-43.3,18.8-79,49.3-109c0.7-0.7,1.5-1.4,2.4-1.5c3.6-0.7,7.2-1.3,11.2-1.9c0.3,6.7-3,12-6.9,17.2c0,0-9.4,11-10.5,14.8
		c-1.2,3.8-1.7,14,3.5,17.8c-0.2-1.8-0.4-3.7-0.5-5.5c-0.1-7.3,7.2-18.1,9.8-20c2.3-1.7,4.7-3.2,7.1-4.8
		C360.7,98.4,361.1,84.5,353.2,78.1z M288.4,130c-0.5-12.5,3.9-17.9,13.3-14.4C297,120.7,292.7,125.3,288.4,130z"/>
	<path id="XMLID_00000108287306515537672730000015134316774820379816_" class="st0" d="M367.6,119.9c-0.5-4.3-3.8-6.9-7.3-6.1
		c-3.6,0.8-9.4,8.8-7.3,8.6c2.5-0.2,7.7,0.7,7.7,0.7c1.8,2.8-0.9,6-2.9,7.2c-4.3,2.6-7.7,6.8-12.1,9.3c-6.8,3.8-14.1,6.8-21.2,10.3
		c-8.4,4.1-10.3,16.2-3.6,22.2c2.4-7.8,3.3-8.9,7.4-9.2c-0.8,26.5,2.3,39,13.3,51.3c-0.4-1.6-0.9-3.3-1.3-4.9
		c-0.4-1.8-0.9-3.6-1.2-5.4c-4.3-21.6-0.9-41.4,13.5-58.7c3.5-4.1,7.2-8.1,11.1-11.9C367.4,129.5,368.1,124.8,367.6,119.9z"/>
</g>
<path class="st1" d="M413.7,111.2c-11.5-50.7-62-82.5-112.7-71c-31.6,7.2-55.8,29.4-66.8,57.4c-2.9,6-5.2,12.4-6.7,19
	c1-18.7,7.3-36.8,18.5-52.4c15.5-21.6,38.5-35.9,64.7-40.2s52.6,1.8,74.2,17.4c21.6,15.5,35.9,38.5,40.2,64.7
	c6.8,41.5-13.2,81.6-47.7,101.9C406.8,186.5,422.2,148.9,413.7,111.2z"/>
<g>
	<polygon class="st2" points="134.7,272 127.5,248.1 114.7,248.1 107,271.7 99.8,248.1 85.4,248.1 98.7,289.6 113.7,289.6 
		120.7,267.4 127.4,289.6 142.4,289.6 155.6,248.1 142.4,248.1 	"/>
	<path class="st2" d="M181.6,248.1l-18.1,41.4h14.2l2.8-7.2h15.8l2.8,7.2h14.4l-18.1-41.4H181.6z M184.3,272.3l4-10.4l4,10.4H184.3z
		"/>
	<path class="st2" d="M264.4,272c1.5-2.3,2.3-5.1,2.3-8.3c0-3.2-0.8-6-2.3-8.3s-3.7-4.2-6.5-5.4c-2.8-1.3-6.2-1.9-10-1.9H228v41.4
		h14v-10.4h3.8l7,10.4h14.9l-8.7-12.7C261.3,275.6,263.1,274,264.4,272z M251.3,260.2c0.9,0.9,1.4,2.1,1.4,3.6s-0.5,2.7-1.4,3.6
		s-2.4,1.3-4.3,1.3h-5.1V259h5.1C248.9,258.9,250.3,259.3,251.3,260.2z"/>
	<polygon class="st2" points="298,273.6 315.5,273.6 315.5,263.5 298,263.5 298,258.7 317.9,258.7 317.9,248.1 284.3,248.1 
		284.3,289.6 318.7,289.6 318.7,279 298,279 	"/>
	<polygon class="st2" points="382.3,272 375.1,248.1 362.2,248.1 354.6,271.7 347.4,248.1 333,248.1 346.2,289.6 361.2,289.6 
		368.3,267.4 374.9,289.6 389.9,289.6 403.2,248.1 389.9,248.1 	"/>
	<path class="st2" d="M445,270.5c0,3.2-0.6,5.4-1.7,6.7c-1.1,1.3-2.7,2-4.6,2s-3.5-0.7-4.6-2s-1.7-3.6-1.7-6.7v-22.4h-14v22.8
		c0,6.2,1.8,11,5.3,14.4c3.6,3.4,8.5,5.1,14.9,5.1s11.3-1.7,14.9-5.1s5.3-8.2,5.3-14.4v-22.8H445V270.5z"/>
	<polygon class="st2" points="491.6,248.1 477.6,248.1 477.6,289.6 510.3,289.6 510.3,278.7 491.6,278.7 	"/>
	<polygon class="st2" points="559.2,258.7 559.2,248.1 525.5,248.1 525.5,289.6 539.5,289.6 539.5,276.3 556.8,276.3 556.8,265.8 
		539.5,265.8 539.5,258.7 	"/>
</g>
</svg>
